# xmcd
#
# Track frame offsets: 
#        150
#        13465
#        22975
#        38390
#        51802
#        69762
#        81450
#        97455
#        113012
#        131440
#        141810
#        157930
#        173375
#        180012
#
# Disc length: 2583 seconds
#
# Revision: 14
# Processed by: cddbd v1.5.2PL0 Copyright (c) Steve Scherf et al.
# Submitted via: ExactAudioCopyFreeDBPlugin 1.0
#
DISCID=a40a150e
DTITLE=Garth Brooks - Garth Brooks and The Magic Of Christmas
DYEAR=1999
DGENRE=Country
TTITLE0=It's The Most Wonderful Time Of The Year
TTITLE1=Let It Snow
TTITLE2=The Christmas Song
TTITLE3=White Christmas
TTITLE4=Baby Jesus Is Born
TTITLE5=God Rest Ye Merry Gentlemen
TTITLE6=Winter Wonderland
TTITLE7=Sleigh Ride
TTITLE8=Have Yourself A Merry Little Christmas
TTITLE9=(There's No Place Like) Home For The Holidays
TTITLE10=Silver Bells
TTITLE11=Go Tell It On The Mountain
TTITLE12=The Wise Men's Journey
TTITLE13=O Little Town Of Bethlehem
EXTD=
EXTT0=
EXTT1=
EXTT2=
EXTT3=
EXTT4=
EXTT5=
EXTT6=
EXTT7=
EXTT8=
EXTT9=
EXTT10=
EXTT11=
EXTT12=
EXTT13=
PLAYORDER=
